<?xml version="1.0" standalone="no"?>
<!DOCTYPE svg PUBLIC "-//W3C//DTD SVG 20010904//EN"
 "http://www.w3.org/TR/2001/REC-SVG-20010904/DTD/svg10.dtd">
<svg version="1.0" xmlns="http://www.w3.org/2000/svg"
 width="700.000000pt" height="700.000000pt" viewBox="0 0 700.000000 700.000000"
 preserveAspectRatio="xMidYMid meet">
<metadata>
Created by potrace 1.14, written by Peter Selinger 2001-2017
</metadata>
<g transform="translate(0.000000,700.000000) scale(0.100000,-0.100000)"
fill="#000000" stroke="none">
<path d="M1175 6993 c-70 -6 -236 -44 -309 -70 -180 -65 -340 -167 -481 -308
-185 -184 -297 -390 -357 -656 l-23 -104 0 -2350 c0 -2230 1 -2355 18 -2440
54 -269 173 -492 362 -680 191 -191 411 -308 680 -362 85 -17 210 -18 2435
-18 2225 0 2350 1 2435 18 269 54 492 173 680 362 191 191 308 411 362 680 17
85 18 210 18 2435 0 2225 -1 2350 -18 2435 -54 269 -172 491 -362 680 -180
180 -373 288 -635 353 l-105 27 -2330 1 c-1282 0 -2348 -1 -2370 -3z m4603
-73 c204 -16 388 -73 548 -170 102 -62 162 -111 258 -210 170 -176 272 -376
323 -635 17 -85 18 -220 18 -2405 0 -2185 -1 -2320 -18 -2405 -54 -272 -157
-468 -346 -656 -227 -228 -466 -335 -801 -359 -98 -8 -866 -10 -2370 -7
l-2225 3 -95 21 c-255 58 -439 154 -613 322 -239 230 -355 484 -378 830 -6 92
-9 963 -6 2366 3 2011 5 2228 20 2300 53 261 160 461 346 646 218 219 466 334
771 358 142 12 4421 12 4568 1z"/>
<path d="M2995 5102 c-86 -9 -336 -99 -970 -350 l-200 -80 -3 -483 c-4 -636
11 -846 62 -906 22 -25 25 -26 55 -13 18 7 57 41 88 76 30 34 68 68 83 74 37
15 71 -2 170 -87 100 -86 167 -125 203 -118 41 7 75 -14 182 -115 95 -90 173
-140 217 -140 63 0 235 -145 313 -263 35 -52 39 -65 40 -125 1 -78 18 -110
122 -232 65 -75 103 -136 103 -164 0 -9 -16 -31 -35 -50 -19 -20 -35 -41 -35
-49 0 -43 115 -190 174 -222 29 -16 38 -17 66 -5 30 12 290 244 297 265 1 6
-49 66 -113 135 -138 148 -170 200 -126 200 39 0 149 -82 306 -229 135 -125
164 -134 243 -74 72 54 203 174 203 185 0 5 -57 70 -127 144 -176 186 -242
278 -219 302 20 20 139 -75 347 -276 81 -78 151 -142 156 -142 4 0 78 70 163
155 l154 154 -20 23 c-10 12 -107 117 -214 233 -246 266 -257 280 -135 170
251 -226 337 -300 345 -300 11 0 320 294 320 304 0 6 -608 614 -1066 1065
l-192 188 -263 -72 c-388 -106 -457 -122 -531 -122 -86 -1 -125 21 -245 140
-117 114 -150 163 -135 197 33 72 524 395 601 395 58 0 -14 -74 -174 -178
-248 -161 -275 -184 -275 -241 0 -57 91 -185 153 -218 65 -33 207 -8 681 118
l261 70 105 -108 c58 -60 255 -264 437 -453 396 -411 562 -569 575 -547 21 38
30 234 35 768 l5 577 -468 155 c-536 178 -677 220 -792 238 -108 16 -158 5
-273 -65 -136 -83 -176 -83 -339 -1 -169 85 -237 106 -315 97z"/>
<path d="M725 4438 c3 -139 10 -602 16 -1028 6 -426 14 -840 18 -920 l6 -145
330 -16 c182 -9 369 -19 418 -22 l87 -6 0 1195 0 1194 -440 0 -441 0 6 -252z"/>
<path d="M5400 3495 l0 -1194 98 6 c53 3 241 13 417 22 l320 16 6 145 c4 80
12 496 18 925 6 429 13 891 16 1028 l6 247 -441 0 -440 0 0 -1195z"/>
<path d="M2037 3279 c-49 -32 -127 -113 -158 -164 -35 -57 -27 -83 53 -158 40
-38 89 -78 110 -88 37 -19 40 -19 73 -3 39 18 113 96 157 163 45 71 38 117
-28 194 -79 93 -130 107 -207 56z"/>
<path d="M2439 3019 c-59 -41 -310 -299 -349 -357 -16 -25 -30 -58 -30 -73 0
-57 133 -189 190 -189 45 0 118 56 276 213 224 224 233 246 135 342 -109 106
-147 117 -222 64z"/>
<path d="M2874 2854 c-47 -23 -207 -171 -348 -321 -153 -163 -171 -191 -167
-256 1 -25 114 -142 151 -157 24 -10 35 -9 72 8 53 23 196 150 342 302 192
202 212 252 136 348 -69 86 -122 108 -186 76z"/>
<path d="M3067 2409 c-57 -38 -285 -273 -311 -321 -26 -49 -17 -75 54 -144 74
-73 119 -98 158 -89 55 12 249 197 324 309 53 78 32 146 -70 239 -53 47 -91
49 -155 6z"/>
</g>
</svg>
