<svg width="92" height="92" viewBox="0 0 92 92" fill="none" xmlns="http://www.w3.org/2000/svg">
<rect x="0.5" y="0.5" width="91" height="91" rx="16.6667" fill="white" stroke="#127780"/>
<path d="M38.0334 26.1969C36.9664 26.9067 36.4685 27.8101 36.4685 29.4233C36.4685 31.4236 36.6108 31.6172 38.6024 31.6172C40.3807 31.6172 40.7363 31.3591 40.7363 30.004C40.7363 28.3908 40.8075 28.3908 46.4267 28.3908C52.046 28.3908 52.1172 28.3908 52.1172 30.004C52.1172 31.3591 52.4728 31.6172 54.2511 31.6172C56.2427 31.6172 56.385 31.4236 56.385 29.4233C56.385 25.9388 54.5356 25.1645 46.4267 25.1645C41.4476 25.1645 39.2426 25.4226 38.0334 26.1969Z" fill="#127780"/>
<path d="M19.5396 35.6856C17.548 37.5569 17.3346 43.2353 19.1128 44.5903C19.753 45.042 24.4476 45.8809 29.569 46.5262C38.8871 47.5586 38.9582 47.5586 40.0963 46.268C41.021 45.3001 42.3724 44.8484 45.5733 44.6549C49.4143 44.3968 50.0545 44.5258 51.6194 46.0099L53.3976 47.5586L63.0002 46.5262C68.335 45.8809 73.1718 45.042 73.7409 44.5903C74.5233 44.0096 74.879 42.6545 74.879 40.3961C74.879 37.6859 74.5233 36.718 73.243 35.621C71.607 34.2014 71.2513 34.2014 46.3557 34.2014H21.0334L19.5396 35.6856Z" fill="#127780"/>
<path d="M42.1589 50.009V52.332L46.2845 52.1384C50.2678 51.9449 50.3389 51.9449 50.3389 50.009C50.3389 48.0732 50.2678 48.0732 46.2845 47.8796L42.1589 47.6861V50.009Z" fill="#127780"/>
<path d="M17.4056 56.1393C17.6901 67.4316 15.0583 66.4636 46.4268 66.4636H71.9625L73.3851 64.7859C74.6655 63.2373 74.8789 62.1403 74.8789 55.6876V48.3315L72.6027 48.7186C71.3223 48.9122 66.6278 49.4929 62.1465 50.0092C54.4645 50.9126 52.8996 51.4288 52.8285 53.3001C52.8285 54.3325 49.5565 55.494 46.4268 55.494C42.5146 55.494 40.1673 54.5261 39.5983 52.6548C39.1715 50.9126 38.6736 50.7835 28.2885 49.6865C24.732 49.2994 20.8199 48.8477 19.5395 48.5896L17.1211 48.2024L17.4056 56.1393Z" fill="#127780"/>
</svg>
