<svg width="92" height="92" viewBox="0 0 92 92" fill="none" xmlns="http://www.w3.org/2000/svg">
<rect x="0.5" y="0.5" width="91" height="91" rx="16.6667" fill="white" stroke="#127780"/>
<path d="M31.3933 27.6562L23.8977 30.6009V39.9102C23.8977 49.2195 24.4743 50.6444 26.7806 47.8896C27.9338 46.5597 28.2221 46.6547 30.144 48.3646C31.2972 49.4095 32.4504 50.0744 32.7386 49.7894C32.9308 49.5045 33.9879 50.1694 34.9489 51.2143C35.9099 52.2592 37.1591 53.1142 37.8318 53.1142C39.3694 53.1142 43.3093 57.3889 42.4445 58.1488C42.1562 58.5288 42.8289 59.8587 43.982 61.0936C45.4235 62.6134 45.8079 63.5634 45.0391 64.0383C44.2703 64.5133 44.4625 65.2732 45.6157 66.5081C47.2493 68.313 47.3454 68.313 49.5557 66.2232L51.7659 64.1333L49.6518 61.9485C46.7688 58.9087 48.6908 59.1937 51.9581 62.3285C54.5527 64.7983 54.6488 64.7983 56.5708 63.0884L58.4927 61.3785L56.0903 58.8137C52.4386 55.014 53.2073 54.1591 57.0512 57.8638L60.4146 61.0936L62.5288 59.0037L64.6429 56.9139L61.3756 53.3992L58.0122 49.7894L61.1834 52.6392L64.2585 55.394L66.4688 53.3042L68.5829 51.2143L60.2224 42.95L51.9581 34.7806L46.3844 36.3005C40.9069 37.8204 40.7147 37.8204 38.6006 35.8255C37.3513 34.6856 36.3903 33.4507 36.3903 33.1657C36.3903 32.2158 44.1742 27.1812 44.6547 27.7511C44.943 28.0361 43.5976 29.176 41.7718 30.316C37.9279 32.5958 37.7357 33.0707 39.5615 35.2556C40.6186 36.6805 41.1952 36.6805 46.8649 35.2556L52.9191 33.6407L59.9342 40.9551C63.8741 45.0398 67.2375 48.3646 67.5258 48.3646C67.8141 48.3646 68.1024 44.3749 68.1024 39.4352V30.5059L59.2615 27.5612C51.1893 24.9014 50.2283 24.7114 48.2103 26.0413C46.1923 27.3712 45.7118 27.3712 43.1171 26.0413C39.6576 24.3314 40.3303 24.2364 31.3933 27.6562Z" fill="#127780"/>
<path d="M9.67535 45.7041L9.96364 61.1879L15.5373 61.4728L21.0148 61.7578V45.989V30.3153H15.249H9.48315L9.67535 45.7041Z" fill="#127780"/>
<path d="M70.9854 45.989V61.7578L76.559 61.4728L82.0365 61.1879L82.3248 45.7041L82.517 30.3153H76.7512H70.9854V45.989Z" fill="#127780"/>
<path d="M25.4354 50.0726C23.9939 51.7824 23.9939 51.9724 25.6276 53.3973C27.3573 54.9172 27.5495 54.9172 29.1832 53.1123C30.5285 51.5925 30.6246 51.0225 29.6637 49.7876C28.1261 47.9827 27.4534 47.9827 25.4354 50.0726Z" fill="#127780"/>
<path d="M29.6635 54.5382C26.5884 57.673 26.4923 57.958 28.0298 59.4779C29.5674 61.0927 29.8557 60.9977 33.123 57.768C36.3903 54.5382 36.3903 54.3483 34.6605 52.8284C33.0269 51.3085 32.7386 51.4035 29.6635 54.5382Z" fill="#127780"/>
<path d="M33.9879 57.8623C30.4323 61.4721 30.3362 61.757 31.8737 63.2769C33.4113 64.8918 33.6996 64.7018 37.5435 60.9971C40.9069 57.5774 41.3874 56.8174 40.3303 55.5825C38.5044 53.4927 38.2161 53.5877 33.9879 57.8623Z" fill="#127780"/>
<path d="M38.024 62.4227C35.5254 65.0825 35.4294 65.1775 37.1591 66.6974C38.7928 68.2173 39.081 68.1223 41.6757 65.4625C43.8859 63.1827 44.1742 62.4227 43.1171 61.1878C41.4835 59.193 41.003 59.383 38.024 62.4227Z" fill="#127780"/>
</svg>
